File Name

Lonely Hearts 2006 Brrip H264 LKRG-Wrath.mp4

File Size
Format : MPEG-4
Format profile : Base Media
Codec ID : isom
File size : 2.01 GiB
Duration : 1h 50mn
Overall bit rate : 2 603 Kbps

Video
ID : 1
Format : AVC
Format/Info : Advanced Video Codec
Format profile : High@L4.1
Format settings, CABAC : Yes
Format settings, ReFrames : 3 frames
Codec ID : avc1
Codec ID/Info : Advanced Video Coding
Duration : 1h 47mn
Bit rate mode : Variable
Bit rate : 2 083 Kbps
Maximum bit rate : 11.2 Mbps
Width : 1 280 pixels
Height : 544 pixels
Display aspect ratio : 2.35:1
Frame rate mode : Constant
Frame rate : 23.976 fps
Resolution : 24 bits
Colorimetry : 4:2:0
Scan type : Progressive
Bits/(Pixel*Frame) : 0.125
Stream size : 1.56 GiB (78%)

Audio #1
ID : 2
Format : AAC
Format/Info : Advanced Audio Codec
Format version : Version 4
Format profile : LC
Format settings, SBR : No
Codec ID : 40
Duration : 1h 50mn
Bit rate mode : Variable
Bit rate : 128 Kbps
Maximum bit rate : 137 Kbps
Channel(s) : 2 channels
Channel positions : L R
Sampling rate : 48.0 KHz
Resolution : 16 bits
Stream size : 101 MiB (5%)

Audio #2
ID : 3
Format : AAC
Format/Info : Advanced Audio Codec
Format version : Version 4
Format profile : LC
Format settings, SBR : No
Codec ID : 40
Duration : 1h 50mn
Bit rate mode : Variable
Bit rate : 448 Kbps
Maximum bit rate : 461 Kbps
Channel(s) : 6 channels
Channel positions : Front: L C R, Rear: L R, LFE
Sampling rate : 48.0 KHz
Resolution : 16 bits
Stream size : 354 MiB (17%)

English SRT : N/A

Language : English

 
http://www.imdb.com/title/tt0441774/

Release Date: 21 October 2006 (Taiwan) 

Genre: Crime | Drama | Romance | Thriller 

Plot: Based on the true story, two homicide detectives track Martha Beck and Raymond Martinez Fernandez, a murderous pair known as the "Lonely Hearts Killers" who lured their victims through the personals.

Cast: 
John Travolta ... Det. Elmer Robinson
James Gandolfini ... Det. Charles Hilderbrandt
Jared Leto ... Ray Fernandez
Salma Hayek ... Martha Beck
Scott Caan ... Det. Reilly
Laura Dern ... Rene Fodie
Michael Gaston ... D.A. Hunt
Bruce MacVittie ... Det. Eastman
Dan Byrd ... Eddie Robinson
Andrew Wheeler ... Det. Tooley
Alice Krige ... Janet Long
Dagmara Dominczyk ... Delphine Downing
John Doman ... Chief MacSwain
Bailee Madison ... Rainelle Downing
Ellen Travolta ... Ida


Screenshots
 
http://postimg.com/image/17000/16642.jpg
 
http://postimg.com/image/17000/16644.jpg